name D:\school\WTK\thesis\model\3dpredictsim\Results\test_WL_v2\Pog_s1_bCst_PF_exp_ig24.mot
datacolumns 128
datarows 4
range 1.14270845 1.17698970
endheader
time	pelvis_tilt	pelvis_list	pelvis_rotation	pelvis_tx	pelvis_ty	pelvis_tz	hip_flexion_l	hip_adduction_l	hip_rotation_l	hip_flexion_r	hip_adduction_r	hip_rotation_r	knee_angle_l	knee_angle_r	ankle_angle_l	ankle_angle_r	subtalar_angle_l	subtalar_angle_r	tmt_angle_l	tmt_angle_r	mtp_angle_l	mtp_angle_r	lumbar_extension	lumbar_bending	lumbar_rotation	arm_flex_l	arm_add_l	arm_rot_l	arm_flex_r	arm_add_r	arm_rot_r	elbow_flex_l	elbow_flex_r	pro_sup_l	pro_sup_r	glut_med1_l/activation	glut_med2_l/activation	glut_med3_l/activation	glut_min1_l/activation	glut_min2_l/activation	glut_min3_l/activation	semimem_l/activation	semiten_l/activation	bifemlh_l/activation	bifemsh_l/activation	sar_l/activation	add_long_l/activation	add_brev_l/activation	add_mag1_l/activation	add_mag2_l/activation	add_mag3_l/activation	tfl_l/activation	pect_l/activation	grac_l/activation	glut_max1_l/activation	glut_max2_l/activation	glut_max3_l/activation	iliacus_l/activation	psoas_l/activation	quad_fem_l/activation	gem_l/activation	peri_l/activation	rect_fem_l/activation	vas_med_l/activation	vas_int_l/activation	vas_lat_l/activation	med_gas_l/activation	lat_gas_l/activation	soleus_l/activation	tib_post_l/activation	flex_dig_l/activation	flex_hal_l/activation	tib_ant_l/activation	per_brev_l/activation	per_long_l/activation	per_tert_l/activation	ext_dig_l/activation	ext_hal_l/activation	ercspn_l/activation	intobl_l/activation	extobl_l/activation	glut_med1_r/activation	glut_med2_r/activation	glut_med3_r/activation	glut_min1_r/activation	glut_min2_r/activation	glut_min3_r/activation	semimem_r/activation	semiten_r/activation	bifemlh_r/activation	bifemsh_r/activation	sar_r/activation	add_long_r/activation	add_brev_r/activation	add_mag1_r/activation	add_mag2_r/activation	add_mag3_r/activation	tfl_r/activation	pect_r/activation	grac_r/activation	glut_max1_r/activation	glut_max2_r/activation	glut_max3_r/activation	iliacus_r/activation	psoas_r/activation	quad_fem_r/activation	gem_r/activation	peri_r/activation	rect_fem_r/activation	vas_med_r/activation	vas_int_r/activation	vas_lat_r/activation	med_gas_r/activation	lat_gas_r/activation	soleus_r/activation	tib_post_r/activation	flex_dig_r/activation	flex_hal_r/activation	tib_ant_r/activation	per_brev_r/activation	per_long_r/activation	per_tert_r/activation	ext_dig_r/activation	ext_hal_r/activation	ercspn_r/activation	intobl_r/activation	extobl_r/activation	
          1.14270845	         -2.92630671	         -2.27894895	          7.18947496	          1.42838556	          0.87122416	         -0.00288221	        -16.07254348	         -2.38844686	          7.08197193	         30.47582144	          3.14954481	         -2.00781615	        -12.60073755	        -14.48458513	         -8.56275746	          6.93133130	         14.20774162	         -1.02763166	         -5.81897690	         -0.86852906	         41.39603132	          0.50871262	         -0.71335801	          0.64402742	         -2.23604488	          5.73776188	        -13.46176713	         17.63443657	        -11.63132641	        -13.59355261	          9.45284538	         39.29396135	         16.14336690	         86.51662706	         86.51662706	          0.20246498	          0.08037722	          0.05001784	          0.20185317	          0.15202078	          0.08606169	          0.05004359	          0.05000791	          0.05001622	          0.05000157	          0.07191373	          0.18567348	          0.19024519	          0.25282586	          0.08706165	          0.15933068	          0.22463651	          0.07159663	          0.05001417	          0.05863205	          0.05953096	          0.06756270	          0.29242961	          0.40335497	          0.05952061	          0.05943777	          0.05001190	          0.24340721	          0.11705711	          0.13918091	          0.07776530	          0.19127341	          0.26287654	          0.19583707	          0.16522934	          0.14622506	          0.18715327	          0.07492358	          0.13853271	          0.17554917	          0.05000607	          0.14597463	          0.05006956	          0.06704795	          0.07282668	          0.07085760	          0.05000076	          0.05000213	          0.08972964	          0.05000433	          0.05000363	          0.05000289	          0.10383753	          0.06418631	          0.14964737	          0.05000495	          0.05084634	          0.15089394	          0.29593651	          0.34759003	          0.24301231	          0.10143220	          0.05001777	          0.08436839	          0.15957152	          0.05007628	          0.10230292	          0.12826445	          0.05749090	          0.07083834	          0.60576498	          0.26354877	          0.11760769	          0.07084901	          0.19347622	          0.20481173	          0.17635655	          0.05956126	          0.06030224	          0.05153656	          0.05899493	          0.07084860	          0.05654806	          0.57419306	          0.38814973	          0.22605304	          0.40095769	          0.53343786	          0.35357612	          0.05000037	          0.08988037	          0.08435881	
          1.15413553	         -2.91680985	         -2.40619056	          7.37140966	          1.44625140	          0.87005309	         -0.00262212	        -15.82242429	         -2.72801195	          6.80005553	         29.60312440	          3.52768529	         -1.75030531	        -14.60791016	        -14.99874148	         -9.35310700	          6.91843769	         15.03922820	         -1.53926319	         -6.80068113	         -1.41521476	         41.13231497	          0.46706396	         -0.48323183	          0.92684202	         -2.30295539	          5.39120017	        -13.46664797	         17.78803873	        -12.71460900	        -13.57408458	          9.55145681	         40.34452815	         15.87014702	         86.51662706	         86.51662706	          0.30662891	          0.06752184	          0.05000269	          0.26933512	          0.12777299	          0.07230567	          0.07082703	          0.07011659	          0.06893667	          0.06750283	          0.08453817	          0.15597107	          0.15981273	          0.21238037	          0.07313946	          0.13384418	          0.23150685	          0.06018264	          0.05986576	          0.05003697	          0.05003670	          0.05675989	          0.24567298	          0.39354773	          0.05000455	          0.05001674	          0.05003156	          0.20446667	          0.09833067	          0.11691504	          0.06532473	          0.16067349	          0.22082344	          0.16450686	          0.13880039	          0.12283824	          0.15721922	          0.12444694	          0.19251473	          0.20800822	          0.10395064	          0.20806495	          0.07087045	          0.07891791	          0.06117583	          0.05952217	          0.28330354	          0.29378686	          0.33094163	          0.44805603	          0.27854972	          0.21838063	          0.10397854	          0.09683833	          0.12855065	          0.08437575	          0.05481937	          0.12675503	          0.24859348	          0.29198509	          0.20414413	          0.12120798	          0.05001138	          0.07089248	          0.13405491	          0.15902697	          0.14516107	          0.10775469	          0.05938292	          0.05950873	          0.50885498	          0.22139109	          0.26003103	          0.05951512	          0.16252552	          0.17204783	          0.14814442	          0.05003344	          0.05065675	          0.05014231	          0.05000597	          0.05953141	          0.05952227	          0.63283514	          0.41399952	          0.20526829	          0.60223950	          0.58289243	          0.47093755	          0.06181923	          0.11050166	          0.07086322	
          1.16556262	         -2.90424375	         -2.52628118	          7.51277659	          1.46404656	          0.86872679	         -0.00233789	        -15.43590075	         -3.04068409	          6.52209131	         28.66604312	          3.88138057	         -1.48705276	        -16.88428623	        -15.42237941	        -10.14212962	          6.79875298	         15.73323065	         -2.06383134	         -7.32073537	         -1.71031608	         39.65756662	          0.45149448	         -0.26933393	          1.20692757	         -2.35880428	          5.01737427	        -13.48003746	         17.88007186	        -13.71615342	        -13.56157192	          9.74055206	         41.35192354	         15.54757399	         86.51662706	         86.51662706	          0.25757872	          0.06297636	          0.05948362	          0.22625465	          0.10734948	          0.06076066	          0.05954202	          0.05890173	          0.05791083	          0.05670556	          0.07102902	          0.13102687	          0.13424897	          0.17840815	          0.06144930	          0.11243773	          0.24944939	          0.05056991	          0.05030341	          0.05125002	          0.05108873	          0.05010689	          0.20638553	          0.37269004	          0.05006296	          0.05019193	          0.05003363	          0.17176578	          0.08526359	          0.12077175	          0.07288009	          0.13496917	          0.18550012	          0.13818960	          0.12187380	          0.10319707	          0.13209686	          0.10836515	          0.16173495	          0.17524991	          0.08732709	          0.23808930	          0.05954750	          0.11016072	          0.05138900	          0.05000213	          0.39960487	          0.43461606	          0.46874406	          0.37639096	          0.24513029	          0.35228023	          0.08734628	          0.10565313	          0.10798684	          0.07089809	          0.05001144	          0.10647777	          0.20882466	          0.24527867	          0.18254389	          0.14427008	          0.05001340	          0.05957208	          0.11264760	          0.26336846	          0.20330617	          0.14922558	          0.05000310	          0.05000356	          0.42744889	          0.18597623	          0.24713382	          0.05000178	          0.13658099	          0.20356984	          0.15219896	          0.05000049	          0.05000092	          0.05000018	          0.05000047	          0.05001338	          0.05000639	          0.66030321	          0.36844105	          0.18499556	          0.77420245	          0.61097342	          0.53210476	          0.08300665	          0.09282404	          0.05952671	
          1.17698970	         -2.88839455	         -2.63853522	          7.61282719	          1.48159202	          0.86742306	         -0.00201496	        -14.90765396	         -3.32825390	          6.26596269	         27.83061234	          4.23870625	         -1.22657089	        -19.44784493	        -15.93891274	        -10.78127057	          6.40305260	         16.30593673	         -2.58002469	         -7.29914939	         -1.71801558	         36.53948121	          0.44238938	         -0.08257457	          1.48416321	         -2.40579009	          4.65871017	        -13.49574482	         17.94915066	        -14.60144661	        -13.55120776	          9.98769128	         42.25395422	         15.17484754	         86.51662706	         86.51662706	          0.21637486	          0.05291133	          0.05001085	          0.19006510	          0.09018519	          0.05105918	          0.05014079	          0.05001034	          0.05001521	          0.05000470	          0.05968469	          0.16133895	          0.11278459	          0.14988136	          0.05165420	          0.09446635	          0.23107434	          0.05014196	          0.05003062	          0.05012224	          0.05008226	          0.05004933	          0.17337140	          0.33607725	          0.05001102	          0.05006176	          0.05003328	          0.14428734	          0.09440904	          0.10216473	          0.07696481	          0.11337738	          0.15583421	          0.11608552	          0.13042648	          0.08670736	          0.13332201	          0.13054494	          0.13586369	          0.14721531	          0.07335936	          0.29289524	          0.05004244	          0.13343315	          0.05000075	          0.05000182	          0.49972998	          0.54507249	          0.57551298	          0.31625185	          0.38592591	          0.41512759	          0.07337644	          0.08891483	          0.09071389	          0.05955814	          0.05001362	          0.08944456	          0.17541806	          0.20604611	          0.17480112	          0.15818180	          0.05001432	          0.05009776	          0.09463299	          0.32549580	          0.24414650	          0.17179066	          0.05000298	          0.05000319	          0.35906655	          0.15622760	          0.22452286	          0.05000335	          0.27015101	          0.30750773	          0.25041587	          0.05000125	          0.05000262	          0.05000049	          0.10433053	          0.05005639	          0.05002703	          0.71762572	          0.30949803	          0.15540027	          0.65034610	          0.51357385	          0.44715535	          0.09553609	          0.07797434	          0.05000452	
